<svg width="407" height="269" viewBox="0 0 407 269" fill="none" xmlns="http://www.w3.org/2000/svg">
<g clip-path="url(#clip0_466_15)">
<ellipse cx="135.389" cy="133.919" rx="134.457" ry="133.627" transform="rotate(-0.043498 135.389 133.919)" fill="url(#paint0_linear_466_15)"/>
<mask id="mask0_466_15" style="mask-type:alpha" maskUnits="userSpaceOnUse" x="0" y="0" width="424" height="269">
<path d="M424 155.5C424.061 235.947 227.849 268.306 147.119 268.367C66.3884 268.428 0.162115 213.933 0.101041 133.486C0.0399674 53.0397 66.1849 0.344193 146.915 0.282904C227.645 0.221615 423.939 75.0532 424 155.5Z" fill="#D9D9D9"/>
</mask>
<g mask="url(#mask0_466_15)">
<g filter="url(#filter0_d_466_15)">
<path d="M-31.4865 69.817C-31.4877 68.1601 -30.1456 66.8159 -28.4888 66.8147L320.713 66.5496C364.895 66.516 400.74 102.306 400.773 146.489L400.803 185.176L-31.3987 185.504L-31.4865 69.817Z" fill="white"/>
</g>
<path d="M2.16244 146.29C-11.0695 147.387 -18.7429 152.447 -31.4207 156.392L-31.3986 185.504L400.803 185.176L400.785 161.663C397.724 161.665 395.315 161.945 391.827 161.67C376.422 160.453 371.2 147.605 355.985 144.901C331.025 140.466 318.524 164.211 293.294 161.744C272.037 159.666 264.23 139.554 242.892 140.508C223.548 141.374 217.263 158.898 198.121 161.817C169.676 166.153 156.337 140.699 127.564 140.596C98.3717 140.492 85.0896 163.065 55.9196 161.925C34.0729 161.071 23.951 144.483 2.16244 146.29Z" fill="#4AAFB8"/>
<path d="M-2.30963 155.25C-15.5419 156.021 -20.2234 156.963 -31.415 164.02L-31.3987 185.504L400.803 185.176L400.789 167.608C397.729 167.611 385.242 167.815 381.755 167.623C366.349 166.775 364.489 157.991 349.275 156.103C324.317 153.007 310.693 172.427 285.463 170.707C264.206 169.258 258.637 147.678 237.3 148.35C217.955 148.96 210.55 165.721 191.407 167.767C162.961 170.807 150.745 149.623 121.972 149.558C92.7799 149.492 80.6147 168.317 51.445 167.526C29.5985 166.934 19.4794 153.981 -2.30963 155.25Z" fill="#00594E"/>
<path d="M-2.28579 166.778C-15.5249 167.3 -20.2091 167.936 -31.4081 172.693L-31.3971 187.164L401.024 186.836L401.015 175.002C397.952 175.005 385.459 175.145 381.97 175.017C366.557 174.45 364.698 168.533 349.477 167.265C324.507 165.186 310.871 178.271 285.629 177.118C264.362 176.148 258.796 161.612 237.447 162.071C218.092 162.486 210.679 173.779 191.526 175.161C163.065 177.216 150.848 162.949 122.06 162.912C92.8534 162.875 80.6774 175.559 51.493 175.034C29.6356 174.64 19.5146 165.918 -2.28579 166.778Z" fill="#1A2857"/>
<path d="M340.278 104.245C340.277 102.588 341.619 101.244 343.276 101.243L361.272 101.229C363.44 101.228 365.362 102.624 366.031 104.687L376.831 137.979C377.04 138.625 376.559 139.287 375.88 139.288L343.305 139.312C341.648 139.314 340.304 137.972 340.303 136.315L340.278 104.245Z" fill="#D9D9D9"/>
<rect x="268.612" y="96.8208" width="42.5483" height="33.5908" rx="2" transform="rotate(-0.043498 268.612 96.8208)" fill="#D9D9D9"/>
<rect x="219.345" y="96.8582" width="42.5483" height="33.5908" rx="2" transform="rotate(-0.043498 219.345 96.8582)" fill="#D9D9D9"/>
<rect x="105.137" y="96.9449" width="42.5483" height="33.5908" rx="2" transform="rotate(-0.043498 105.137 96.9449)" fill="#D9D9D9"/>
<rect x="55.8701" y="96.9824" width="42.5483" height="33.5908" rx="2" transform="rotate(-0.043498 55.8701 96.9824)" fill="#D9D9D9"/>
<rect x="185.754" y="96.8838" width="15.6757" height="33.5908" rx="2" transform="rotate(-0.043498 185.754 96.8838)" fill="#D9D9D9"/>
<rect x="165.6" y="96.899" width="15.6757" height="33.5908" rx="2" transform="rotate(-0.043498 165.6 96.899)" fill="#D9D9D9"/>
<rect x="22.2793" y="97.0079" width="15.6757" height="33.5908" rx="2" transform="rotate(-0.043498 22.2793 97.0079)" fill="#D9D9D9"/>
<rect x="2.125" y="97.0232" width="15.6757" height="33.5908" rx="2" transform="rotate(-0.043498 2.125 97.0232)" fill="#D9D9D9"/>
<mask id="mask1_466_15" style="mask-type:alpha" maskUnits="userSpaceOnUse" x="-32" y="66" width="433" height="120">
<path d="M-31.4865 69.817C-31.4877 68.1601 -30.1456 66.8159 -28.4888 66.8147L320.713 66.5496C364.895 66.516 400.74 102.306 400.773 146.489L400.803 185.176L-31.3987 185.504L-31.4865 69.817Z" fill="white"/>
</mask>
<g mask="url(#mask1_466_15)">
<path d="M364.896 83.3115L390.425 83.2921L407.486 139.264L392.93 139.275C392.93 139.275 389.879 121.711 385.071 111.288C379.634 99.5034 364.896 83.3115 364.896 83.3115Z" fill="#D9D9D9"/>
</g>
<g filter="url(#filter1_d_466_15)">
<rect x="-122.688" y="198.023" width="207.496" height="14.1097" rx="7.05485" transform="rotate(-0.043498 -122.688 198.023)" fill="#69C8BC"/>
</g>
<g filter="url(#filter2_d_466_15)">
<rect x="88.958" y="197.863" width="17.4296" height="14.1097" rx="7.05485" transform="rotate(-0.043498 88.958 197.863)" fill="#69C8BC"/>
</g>
<g filter="url(#filter3_d_466_15)">
<rect x="-22.2427" y="220.357" width="207.496" height="14.1097" rx="7.05485" transform="rotate(-0.043498 -22.2427 220.357)" fill="#68A2B7"/>
</g>
<g filter="url(#filter4_d_466_15)">
<rect x="-102.733" y="243.657" width="207.496" height="14.1097" rx="7.05485" transform="rotate(-0.043498 -102.733 243.657)" fill="#FCF3CA"/>
</g>
<g filter="url(#filter5_d_466_15)">
<rect x="-7.44141" y="37.7493" width="207.496" height="14.1097" rx="7.05485" transform="rotate(-0.043498 -7.44141 37.7493)" fill="#FCF3CA"/>
</g>
<g filter="url(#filter6_d_466_15)">
<rect x="205.034" y="37.588" width="16.5996" height="14.1097" rx="7.05485" transform="rotate(-0.043498 205.034 37.588)" fill="#FCF3CA"/>
</g>
</g>
</g>
<defs>
<filter id="filter0_d_466_15" x="-31.4863" y="66.5496" width="432.289" height="128.955" filterUnits="userSpaceOnUse" color-interpolation-filters="sRGB">
<feFlood flood-opacity="0" result="BackgroundImageFix"/>
<feColorMatrix in="SourceAlpha" type="matrix" values="0 0 0 0 0 0 0 0 0 0 0 0 0 0 0 0 0 0 127 0" result="hardAlpha"/>
<feOffset dy="10"/>
<feComposite in2="hardAlpha" operator="out"/>
<feColorMatrix type="matrix" values="0 0 0 0 0 0 0 0 0 0 0 0 0 0 0 0 0 0 0.25 0"/>
<feBlend mode="normal" in2="BackgroundImageFix" result="effect1_dropShadow_466_15"/>
<feBlend mode="normal" in="SourceGraphic" in2="effect1_dropShadow_466_15" result="shape"/>
</filter>
<filter id="filter1_d_466_15" x="-122.682" y="197.871" width="211.496" height="21.2565" filterUnits="userSpaceOnUse" color-interpolation-filters="sRGB">
<feFlood flood-opacity="0" result="BackgroundImageFix"/>
<feColorMatrix in="SourceAlpha" type="matrix" values="0 0 0 0 0 0 0 0 0 0 0 0 0 0 0 0 0 0 127 0" result="hardAlpha"/>
<feOffset dx="4" dy="7"/>
<feComposite in2="hardAlpha" operator="out"/>
<feColorMatrix type="matrix" values="0 0 0 0 0 0 0 0 0 0 0 0 0 0 0 0 0 0 0.25 0"/>
<feBlend mode="normal" in2="BackgroundImageFix" result="effect1_dropShadow_466_15"/>
<feBlend mode="normal" in="SourceGraphic" in2="effect1_dropShadow_466_15" result="shape"/>
</filter>
<filter id="filter2_d_466_15" x="88.9634" y="197.855" width="21.4297" height="21.1122" filterUnits="userSpaceOnUse" color-interpolation-filters="sRGB">
<feFlood flood-opacity="0" result="BackgroundImageFix"/>
<feColorMatrix in="SourceAlpha" type="matrix" values="0 0 0 0 0 0 0 0 0 0 0 0 0 0 0 0 0 0 127 0" result="hardAlpha"/>
<feOffset dx="4" dy="7"/>
<feComposite in2="hardAlpha" operator="out"/>
<feColorMatrix type="matrix" values="0 0 0 0 0 0 0 0 0 0 0 0 0 0 0 0 0 0 0.25 0"/>
<feBlend mode="normal" in2="BackgroundImageFix" result="effect1_dropShadow_466_15"/>
<feBlend mode="normal" in="SourceGraphic" in2="effect1_dropShadow_466_15" result="shape"/>
</filter>
<filter id="filter3_d_466_15" x="-22.2373" y="220.205" width="211.496" height="21.2565" filterUnits="userSpaceOnUse" color-interpolation-filters="sRGB">
<feFlood flood-opacity="0" result="BackgroundImageFix"/>
<feColorMatrix in="SourceAlpha" type="matrix" values="0 0 0 0 0 0 0 0 0 0 0 0 0 0 0 0 0 0 127 0" result="hardAlpha"/>
<feOffset dx="4" dy="7"/>
<feComposite in2="hardAlpha" operator="out"/>
<feColorMatrix type="matrix" values="0 0 0 0 0 0 0 0 0 0 0 0 0 0 0 0 0 0 0.25 0"/>
<feBlend mode="normal" in2="BackgroundImageFix" result="effect1_dropShadow_466_15"/>
<feBlend mode="normal" in="SourceGraphic" in2="effect1_dropShadow_466_15" result="shape"/>
</filter>
<filter id="filter4_d_466_15" x="-102.728" y="243.505" width="211.495" height="21.2565" filterUnits="userSpaceOnUse" color-interpolation-filters="sRGB">
<feFlood flood-opacity="0" result="BackgroundImageFix"/>
<feColorMatrix in="SourceAlpha" type="matrix" values="0 0 0 0 0 0 0 0 0 0 0 0 0 0 0 0 0 0 127 0" result="hardAlpha"/>
<feOffset dx="4" dy="7"/>
<feComposite in2="hardAlpha" operator="out"/>
<feColorMatrix type="matrix" values="0 0 0 0 0 0 0 0 0 0 0 0 0 0 0 0 0 0 0.25 0"/>
<feBlend mode="normal" in2="BackgroundImageFix" result="effect1_dropShadow_466_15"/>
<feBlend mode="normal" in="SourceGraphic" in2="effect1_dropShadow_466_15" result="shape"/>
</filter>
<filter id="filter5_d_466_15" x="-7.43604" y="37.5971" width="211.496" height="21.2565" filterUnits="userSpaceOnUse" color-interpolation-filters="sRGB">
<feFlood flood-opacity="0" result="BackgroundImageFix"/>
<feColorMatrix in="SourceAlpha" type="matrix" values="0 0 0 0 0 0 0 0 0 0 0 0 0 0 0 0 0 0 127 0" result="hardAlpha"/>
<feOffset dx="4" dy="7"/>
<feComposite in2="hardAlpha" operator="out"/>
<feColorMatrix type="matrix" values="0 0 0 0 0 0 0 0 0 0 0 0 0 0 0 0 0 0 0.25 0"/>
<feBlend mode="normal" in2="BackgroundImageFix" result="effect1_dropShadow_466_15"/>
<feBlend mode="normal" in="SourceGraphic" in2="effect1_dropShadow_466_15" result="shape"/>
</filter>
<filter id="filter6_d_466_15" x="205.04" y="37.5807" width="20.5996" height="21.1116" filterUnits="userSpaceOnUse" color-interpolation-filters="sRGB">
<feFlood flood-opacity="0" result="BackgroundImageFix"/>
<feColorMatrix in="SourceAlpha" type="matrix" values="0 0 0 0 0 0 0 0 0 0 0 0 0 0 0 0 0 0 127 0" result="hardAlpha"/>
<feOffset dx="4" dy="7"/>
<feComposite in2="hardAlpha" operator="out"/>
<feColorMatrix type="matrix" values="0 0 0 0 0 0 0 0 0 0 0 0 0 0 0 0 0 0 0.25 0"/>
<feBlend mode="normal" in2="BackgroundImageFix" result="effect1_dropShadow_466_15"/>
<feBlend mode="normal" in="SourceGraphic" in2="effect1_dropShadow_466_15" result="shape"/>
</filter>
<linearGradient id="paint0_linear_466_15" x1="244.116" y1="133.919" x2="-560.137" y2="147.199" gradientUnits="userSpaceOnUse">
<stop stop-color="#E68F40"/>
<stop offset="1" stop-color="#E68F40" stop-opacity="0"/>
</linearGradient>
<clipPath id="clip0_466_15">
<rect width="406.797" height="267.914" fill="white" transform="translate(0 0.39444) rotate(-0.043498)"/>
</clipPath>
</defs>
</svg>
